<?xml version="1.0" encoding="utf-8"?>
<!-- Generator: Adobe Illustrator 25.0.0, SVG Export Plug-In . SVG Version: 6.00 Build 0)  -->
<svg version="1.1" id="Layer_1" xmlns="http://www.w3.org/2000/svg" xmlns:xlink="http://www.w3.org/1999/xlink" x="0px" y="0px"
	 viewBox="0 0 44 44" style="enable-background:new 0 0 44 44;" xml:space="preserve">
<style type="text/css">
	.st0{fill:url(#SVGID_1_);}
	.st1{fill:url(#SVGID_2_);}
	.st2{fill:url(#SVGID_3_);}
</style>
<g>
	<g>
		<g>
			<linearGradient id="SVGID_1_" gradientUnits="userSpaceOnUse" x1="-3.6409" y1="43.5879" x2="20.0911" y2="19.7154">
				<stop  offset="0" style="stop-color:#092FAA"/>
				<stop  offset="1" style="stop-color:#38EDEC"/>
			</linearGradient>
			<path class="st0" d="M20.9,11.1c2.2,0,3.7,0.9,5,2.2c0.6,0.6,1.2,1.3,1.9,1.9c0.7,0.7,0.7,1.6,0.1,2.2c-0.6,0.6-1.5,0.6-2.2-0.1
				c-0.8-0.8-1.5-1.5-2.3-2.3c-1.3-1.3-3.2-1.3-4.5-0.1c-1.3,1.2-1.3,3.1,0.1,4.5c1.5,1.6,3.1,3.1,4.6,4.6c0.5,0.5,0.6,1.1,0.2,1.7
				c-0.4,0.7-1.1,0.9-1.7,0.7c-0.4-0.1-0.7-0.5-1-0.8c-1.5-1.5-3-2.9-4.4-4.5c-1.7-1.9-2.1-4.1-1.1-6.5
				C16.7,12.4,18.6,11.3,20.9,11.1z"/>
		</g>
		<g>
			<linearGradient id="SVGID_2_" gradientUnits="userSpaceOnUse" x1="-0.2922" y1="46.9169" x2="23.4398" y2="23.0444">
				<stop  offset="0" style="stop-color:#092FAA"/>
				<stop  offset="1" style="stop-color:#38EDEC"/>
			</linearGradient>
			<path class="st1" d="M23.3,31.2c-2.2,0-3.8-0.8-5.1-2.1c-0.6-0.6-1.3-1.2-1.9-1.8c-0.7-0.7-0.8-1.6-0.2-2.2
				c0.6-0.6,1.5-0.6,2.2,0c0.8,0.7,1.6,1.5,2.3,2.2c1.3,1.2,3.2,1.2,4.5-0.1c1.2-1.3,1.2-3.2-0.2-4.5c-1.6-1.5-3.2-3-4.8-4.5
				c-0.6-0.5-0.6-1.1-0.3-1.7c0.4-0.7,1.1-1,1.7-0.8c0.5,0.1,0.7,0.5,1.1,0.8c1.5,1.4,3.1,2.8,4.5,4.3c1.8,1.8,2.2,4.1,1.3,6.4
				C27.5,29.8,25.5,31,23.3,31.2z"/>
		</g>
	</g>
	<linearGradient id="SVGID_3_" gradientUnits="userSpaceOnUse" x1="-3.161" y1="44.0649" x2="20.571" y2="20.1925">
		<stop  offset="0" style="stop-color:#092FAA"/>
		<stop  offset="1" style="stop-color:#38EDEC"/>
	</linearGradient>
	<path class="st2" d="M38.4,9.6c0-0.3-0.1-0.4-0.3-0.5c-1.6-0.8-3.2-1.6-4.8-2.3C29.7,5,26,3.2,22.4,1.4c-0.1-0.1-0.2-0.1-0.4-0.1
		c-0.1,0-0.2,0-0.4,0.1C18,3.2,14.3,5,10.7,6.8C9.4,7.5,8,8.1,6.7,8.8C6.5,8.9,6.2,9,5.9,9.2C5.7,9.3,5.6,9.4,5.6,9.6
		c-0.1,2.5-0.2,5,0.1,7.4c0.1,0.8,0.2,1.5,0.3,2.3c0.2,1.4,0.4,2.7,0.7,4c0.1,0.4,0.2,0.7,0.3,1.1c0.7,2.6,1.8,5,3.2,7.3
		c0.1,0.2,0.3,0.4,0.4,0.5c0,0,0.1,0.1,0.1,0.2c0,0.1,0,0.1,0.1,0.1c0.4,0.6,0.9,1.3,1.4,1.9c0.1,0.1,0.2,0.3,0.3,0.4c0,0,0,0,0,0
		c0.1,0.1,0.1,0.1,0.2,0.2c0.1,0.1,0.2,0.2,0.2,0.3c0,0,0.1,0.1,0.1,0.1c0,0,0,0.1,0.1,0.1c0,0,0,0,0,0c0,0,0,0,0.1,0.1
		c0,0,0,0,0,0.1c0,0.1,0.1,0.1,0.2,0.2c0,0,0,0.1,0,0.1c0.1,0.1,0.1,0.1,0.2,0.2l0,0c0.1,0.2,0.3,0.4,0.5,0.5c0,0,0,0,0,0
		c1.8,1.8,3.7,3.4,5.9,4.7c0.6,0.4,1.2,0.7,1.8,1.1c0,0,0,0,0,0c0.1,0.1,0.2,0.1,0.3,0c0,0,0,0,0,0c0.6-0.4,1.2-0.7,1.8-1.1
		c2.2-1.3,4.1-2.9,5.9-4.7c0,0,0,0,0,0c0.2-0.1,0.3-0.3,0.5-0.5l0,0c0.1-0.1,0.1-0.1,0.2-0.2c0,0,0,0,0-0.1c0.1,0,0.1-0.1,0.2-0.2
		c0,0,0-0.1,0-0.1c0,0,0,0,0.1-0.1c0,0,0,0,0,0c0,0,0-0.1,0.1-0.1c0,0,0.1-0.1,0.1-0.1c0.1-0.1,0.2-0.2,0.2-0.3
		c0.1-0.1,0.1-0.1,0.2-0.2c0,0,0,0,0,0c0.1-0.1,0.2-0.2,0.3-0.4c0.5-0.6,0.9-1.2,1.4-1.9c0.1,0,0.1-0.1,0.1-0.1c0-0.1,0-0.1,0.1-0.2
		c0.1-0.2,0.3-0.4,0.4-0.5c1.4-2.3,2.5-4.7,3.2-7.3c0.5-1.7,0.8-3.4,1-5.1c0.1-0.8,0.2-1.5,0.3-2.3C38.6,14.6,38.5,12.1,38.4,9.6z
		 M35.6,17.9c-0.1,0.6-0.2,1.3-0.3,1.9c-0.2,1.4-0.4,2.9-0.9,4.3c-0.6,2.1-1.5,4.2-2.7,6.1c-0.1,0.2-0.2,0.3-0.3,0.5
		c0,0-0.1,0.1-0.1,0.1c0,0,0,0.1-0.1,0.1c-0.4,0.7-0.9,1.3-1.4,1.9c0,0,0,0,0,0c0,0.1-0.1,0.1-0.1,0.2c-0.1,0.1-0.1,0.2-0.2,0.2
		c0,0-0.1,0.1-0.1,0.1c0,0,0,0.1-0.1,0.1c0,0,0,0,0,0c0,0,0,0-0.1,0.1c0,0,0,0,0,0.1c0,0.1-0.1,0.1-0.2,0.2c0,0,0,0,0,0
		c0,0.1-0.1,0.1-0.1,0.2l0,0c-0.1,0.2-0.2,0.3-0.4,0.4c0,0,0,0,0,0c-1.5,1.5-3.1,2.8-4.9,4c-0.5,0.3-1,0.6-1.5,0.9c0,0,0,0,0,0
		c-0.1,0.1-0.2,0.1-0.3,0c0,0,0,0,0,0c-0.5-0.3-1-0.6-1.5-0.9c-1.8-1.1-3.4-2.4-4.9-4c0,0,0,0,0,0c-0.2-0.1-0.3-0.2-0.4-0.4l0,0
		c0-0.1-0.1-0.1-0.1-0.2c0,0,0,0,0,0c-0.1,0-0.1-0.1-0.2-0.2c0,0,0,0,0-0.1c0,0,0,0-0.1-0.1c0,0,0,0,0,0c0,0,0,0-0.1-0.1
		c0,0-0.1-0.1-0.1-0.1c-0.1-0.1-0.1-0.2-0.2-0.2c0-0.1-0.1-0.1-0.1-0.2c0,0,0,0,0,0c-0.5-0.6-1-1.2-1.4-1.9c-0.1,0-0.1-0.1-0.1-0.1
		c0-0.1,0-0.1-0.1-0.1c-0.1-0.1-0.2-0.3-0.3-0.5c-1.2-1.9-2.1-3.9-2.7-6.1c-0.4-1.4-0.6-2.8-0.9-4.3c-0.1-0.6-0.2-1.3-0.3-1.9
		c-0.2-2.1-0.2-4.1-0.1-6.2c0-0.2,0.1-0.3,0.3-0.4C13,9.1,17.3,7,21.7,4.8c0.1-0.1,0.2-0.1,0.3-0.1c0.1,0,0.2,0,0.3,0.1
		C26.7,7,31,9.1,35.4,11.3c0.2,0.1,0.3,0.2,0.3,0.4C35.8,13.7,35.8,15.8,35.6,17.9z"/>
</g>
</svg>
